<svg width="22" height="22" viewBox="0 0 22 22" fill="none" xmlns="http://www.w3.org/2000/svg">
    <path d="M16.765 1V3M4.76501 1V3" stroke="#FF93D5" stroke-width="1.5" stroke-linecap="round" stroke-linejoin="round"/>
    <path d="M10.7605 12H10.7695M10.7605 16H10.7695M14.756 12H14.765M6.76501 12H6.77398M6.76501 16H6.77398" stroke="#FF93D5" stroke-width="2" stroke-linecap="round" stroke-linejoin="round"/>
    <path d="M2.26501 7H19.265" stroke="#FF93D5" stroke-width="1.5" stroke-linecap="round" stroke-linejoin="round"/>
    <path d="M1.26501 11.2432C1.26501 6.88594 1.26501 4.70728 2.51713 3.35364C3.76925 2 5.7845 2 9.81501 2H11.715C15.7455 2 17.7608 2 19.0129 3.35364C20.265 4.70728 20.265 6.88594 20.265 11.2432V11.7568C20.265 16.1141 20.265 18.2927 19.0129 19.6464C17.7608 21 15.7455 21 11.715 21H9.81501C5.7845 21 3.76925 21 2.51713 19.6464C1.26501 18.2927 1.26501 16.1141 1.26501 11.7568V11.2432Z" stroke="#FF93D5" stroke-width="1.5" stroke-linecap="round" stroke-linejoin="round"/>
    <path d="M1.76501 7H19.765" stroke="#FF93D5" stroke-width="1.5" stroke-linecap="round" stroke-linejoin="round"/>
</svg>
