<svg width="22" height="22" viewBox="0 0 22 22" fill="none" xmlns="http://www.w3.org/2000/svg">
    <path d="M13.0366 20.367C12.5716 20.773 11.95 21 11.3031 21C10.6561 21 10.0346 20.773 9.56954 20.367C5.31081 16.626 -0.396389 12.4469 2.38685 6.37966C3.89171 3.09916 7.50407 1 11.3031 1C15.1021 1 18.7145 3.09916 20.2194 6.37966C22.999 12.4393 17.3058 16.6389 13.0366 20.367Z" stroke="#FF93D5" stroke-width="1.5"/>
    <path d="M15.055 10C15.055 11.933 13.3747 13.5 11.3019 13.5C9.22908 13.5 7.54874 11.933 7.54874 10C7.54874 8.067 9.22908 6.5 11.3019 6.5C13.3747 6.5 15.055 8.067 15.055 10Z" stroke="#FF93D5" stroke-width="1.5"/>
</svg>
