<svg width="18" height="18" viewBox="0 0 18 18" fill="none" xmlns="http://www.w3.org/2000/svg">
    <path fill-rule="evenodd" clip-rule="evenodd" d="M8.16669 2.33329C4.94503 2.33329 2.33335 4.94496 2.33335 8.16663C2.33335 11.3883 4.94503 14 8.16669 14C11.3883 14 14 11.3883 14 8.16663C14 4.94496 11.3883 2.33329 8.16669 2.33329ZM0.666687 8.16663C0.666687 4.02449 4.02455 0.666626 8.16669 0.666626C12.3088 0.666626 15.6667 4.02449 15.6667 8.16663C15.6667 12.3088 12.3088 15.6666 8.16669 15.6666C4.02455 15.6666 0.666687 12.3088 0.666687 8.16663Z" fill="white"/>
    <path fill-rule="evenodd" clip-rule="evenodd" d="M12.2858 12.2857C12.6112 11.9603 13.1388 11.9603 13.4643 12.2857L17.0893 15.9107C17.4147 16.2361 17.4147 16.7638 17.0893 17.0892C16.7638 17.4147 16.2362 17.4147 15.9108 17.0892L12.2858 13.4642C11.9603 13.1388 11.9603 12.6111 12.2858 12.2857Z" fill="white"/>
</svg>
